<mxfile host="app.diagrams.net" modified="2023-03-12T08:54:59.057Z" agent="5.0 (Windows NT 10.0; Win64; x64) AppleWebKit/537.36 (KHTML, like Gecko) Chrome/110.0.0.0 Safari/537.36 Edg/110.0.1587.69" etag="zXs0IIW-uLXjcrzlNHAP" version="20.3.5" type="github">
  <diagram id="yDvJHMkAQOcMyb0t-lbQ" name="第 1 页">
    <mxGraphModel dx="451" dy="398" grid="1" gridSize="10" guides="1" tooltips="1" connect="1" arrows="1" fold="1" page="1" pageScale="1" pageWidth="827" pageHeight="1169" math="0" shadow="0">
      <root>
        <mxCell id="0" />
        <mxCell id="1" parent="0" />
        <mxCell id="oD_Q4X42INSbRNo0mPSb-1" value="用户" style="shape=umlActor;verticalLabelPosition=bottom;verticalAlign=top;html=1;outlineConnect=0;" vertex="1" parent="1">
          <mxGeometry x="220" y="60" width="30" height="60" as="geometry" />
        </mxCell>
      </root>
    </mxGraphModel>
  </diagram>
</mxfile>
